<svg xmlns="http://www.w3.org/2000/svg" version="1.1" xmlns:xlink="http://www.w3.org/1999/xlink" xmlns:svgjs="http://svgjs.com/svgjs" width="145" height="141"><svg id="SvgjsSvg1000" xmlns="http://www.w3.org/2000/svg" xmlns:xlink="http://www.w3.org/1999/xlink" viewBox="0 0 145 141" shape-rendering="geometricPrecision" text-rendering="geometricPrecision"><path d="M28.5,125.51C15.85,117.85,2.3,98.59,2.3,72.56c0-10.88,2.85-27.81,16.58-44.39C34.57,9.09,54.71,5.53,70.76,5.53c14.8,0,28.53,2.32,43.5,14.08c13.55,10.7,24.42,28.7,24.42,53.31c0,13.01-4.1,26.56-13.37,39.04C113.72,126.4,98.57,137.1,70.4,137.1c-12.3,0-27.81-2.85-41.9-11.59Zm82.19-51.16c0-39.04-25.67-60.44-40.65-60.44-3.57,0-12.48-.89-23.36,9.63-10.52,9.98-15.87,28.7-15.87,43.32c0,45.64,26.21,61.86,41.01,61.86c32.99,0,38.87-39.76,38.87-54.37Z" fill="#6b7b99"></path></svg><style>@media (prefers-color-scheme: light) { :root { filter: none; } }
</style></svg>