<?xml version="1.0" encoding="utf-8"?>
<!-- Generator: Adobe Illustrator 23.0.1, SVG Export Plug-In . SVG Version: 6.00 Build 0)  -->
<svg version="1.1" id="Layer_1" xmlns="http://www.w3.org/2000/svg" xmlns:xlink="http://www.w3.org/1999/xlink" x="0px" y="0px"
	 viewBox="0 0 961.8 268.39" style="enable-background:new 0 0 961.8 268.39;" xml:space="preserve">
<style type="text/css">
	.st0{fill:#6B7B99;}
</style>
<g>
	<g>
		<rect y="164.9" class="st0" width="958.86" height="2.4"/>
		<g>
			<g>
				<path class="st0" d="M28.5,125.51C15.85,117.85,2.3,98.59,2.3,72.56c0-10.88,2.85-27.81,16.58-44.39
					C34.57,9.09,54.71,5.53,70.76,5.53c14.8,0,28.53,2.32,43.5,14.08c13.55,10.7,24.42,28.7,24.42,53.31
					c0,13.01-4.1,26.56-13.37,39.04c-11.59,14.44-26.74,25.14-54.91,25.14C58.1,137.1,42.59,134.25,28.5,125.51z M110.69,74.35
					c0-39.04-25.67-60.44-40.65-60.44c-3.57,0-12.48-0.89-23.36,9.63c-10.52,9.98-15.87,28.7-15.87,43.32
					c0,45.64,26.21,61.86,41.01,61.86C104.81,128.72,110.69,88.96,110.69,74.35z"/>
				<path class="st0" d="M178.08,120.7c-13.19-11.77-19.43-32.27-19.43-47.6c0-18.36,5.88-34.94,18.36-48.32
					c10.16-10.88,24.96-19.25,47.07-19.25c16.22,0,29.6,4.1,35.84,7.49c2.49,1.25,3.39,1.07,3.74-0.18l1.43-4.46
					c0.36-1.07,0.71-1.07,3.39-1.07c2.68,0,3.03,0.36,3.03,2.85c0,3.39,3.21,33.7,4.1,39.04c0.18,1.25,0,2.14-0.89,2.32l-3.92,1.07
					c-0.89,0.36-1.61-0.36-2.14-1.96c-1.96-7.13-6.78-16.22-14.26-23.89c-7.67-7.49-17.12-13.37-30.67-13.37
					c-26.03,0-37.08,23.71-36.91,50.1c0,11.23,3.21,33.16,15.87,46.53c11.59,11.94,21.75,13.37,27.81,13.37
					c20.32,0,35.48-9.27,42.07-19.08c0.89-1.43,1.78-2.14,2.68-1.43l3.03,2.67c0.54,0.36,0.71,1.07,0,2.14
					c-10.34,14.98-27.63,29.42-52.77,29.42C201.79,137.1,189.31,130.68,178.08,120.7z"/>
				<path class="st0" d="M334.97,16.4h-6.24c-5.71,0-16.4,0.18-23.89,2.85c-3.92,2.85-11.77,13.73-16.22,20.15
					c-0.54,0.89-1.07,1.43-1.78,1.25l-3.92-1.43c-0.71-0.18-0.89-1.07-0.71-1.6c1.96-7.49,7.85-31.02,8.56-34.59
					c0.54-2.32,1.42-3.03,2.67-3.03s1.78,0.71,3.39,2.67c1.96,2.5,5.35,4.1,11.77,4.46c9.45,0.53,16.94,1.07,35.48,1.07h10.34
					c19.43,0,27.1-0.71,34.59-1.07c3.92-0.18,10.88-2.32,13.01-4.46c1.78-1.78,2.85-2.67,4.1-2.67c1.25,0,1.78,0.71,2.14,2.85
					l5.35,35.48c0.18,0.71-0.18,1.43-0.71,1.6l-3.74,1.43c-0.71,0.18-1.07-0.36-1.78-1.61c-3.92-6.42-10.88-15.69-15.33-19.97
					c-4.46-2.67-20.32-3.39-24.43-3.39h-5.88v49.03c0,2.5,0,52.42,0.18,55.09c0.36,4.46,1.78,7.13,6.06,7.13h8.02
					c1.61,0,1.78,0.54,1.78,1.78v4.1c0,0.89-0.18,1.43-1.78,1.43c-1.78,0-7.49-0.54-27.28-0.54c-18.9,0-26.39,0.54-28.88,0.54
					c-1.43,0-1.61-0.71-1.61-2.14v-3.39c0-1.25,0.18-1.78,1.25-1.78h9.09c3.57,0,5.71-2.14,6.06-5.35
					c0.36-3.74,0.36-58.48,0.36-61.86V16.4z"/>
				<path class="st0" d="M430.35,85.58c-1.43,3.74-10.16,28.17-10.16,33.87c0,3.92,1.6,8.2,6.95,8.2h6.24
					c1.78,0,1.96,0.71,1.96,1.43V133c0,1.43-0.18,1.96-1.61,1.96c-2.32,0-9.63-0.54-24.25-0.54c-13.02,0-16.94,0.54-19.43,0.54
					c-1.07,0-1.25-1.07-1.25-2.32v-3.39c0-1.07,0.18-1.61,1.25-1.61h4.64c4.28,0,8.56-2.5,12.12-7.84
					c2.5-3.74,15.15-34.77,21.04-50.45c1.43-3.57,15.87-41.9,17.47-46.71c0.54-1.78,1.43-4.1,0.18-6.06
					c-0.54-0.71-1.25-1.6-1.25-2.32c0-0.54,0.36-1.25,1.78-1.6c5.71-1.25,17.29-5.88,19.97-8.91c0.89-0.89,1.42-1.61,2.32-1.61
					c1.07,0,1.43,1.07,1.96,3.03c3.39,11.23,17.29,51.17,20.68,62.58c4.1,13.91,15.69,47.07,18.19,51.88
					c3.03,5.88,7.67,8.02,10.34,8.02h6.06c1.07,0,1.25,0.71,1.25,1.61v3.39c0,1.07-0.18,2.32-1.61,2.32
					c-3.39,0-7.13-0.54-29.95-0.54c-14.8,0-21.04,0.54-24.6,0.54c-1.78,0-1.96-1.07-1.96-2.32v-3.39c0-0.89,0.18-1.61,1.07-1.61
					h4.99c4.81,0,6.42-1.78,5.35-6.42c-1.61-6.42-8.56-29.24-10.7-35.66H430.35z M467.78,78.45L454.41,31.2
					c-0.71-2.67-1.07-3.92-1.96-3.92c-1.07,0-1.61,0.71-2.14,2.32c-0.89,2.32-16.22,44.39-17.65,48.85H467.78z"/>
				<path class="st0" d="M648.92,117.13c0,2.5,0.71,4.28,0.71,5.71c0,1.43-1.07,2.14-2.85,2.85c-14.44,7.31-29.6,11.41-52.24,11.41
					c-18.54,0-39.4-5.88-51.7-20.32c-10.88-12.3-16.4-27.46-16.4-49.03c0-16.22,7.67-33.52,20.68-44.75
					c13.01-11.41,29.06-17.47,50.45-17.47c18.01,0,31.38,4.99,37.26,8.74c2.14,1.25,3.39,0.89,4.46-0.54l1.78-2.85
					c0.89-1.25,1.25-1.78,2.32-1.78c1.96,0,2.49,1.25,2.49,3.21l2.68,36.73c0.18,2.14,0,3.03-0.71,3.21l-4.99,1.07
					c-1.07,0.18-1.61-0.18-2.14-1.78c-2.85-8.74-8.56-20.15-16.22-27.1c-6.95-6.6-16.05-11.05-28.17-11.05
					c-9.63,0-18.54,3.03-26.92,13.37c-8.2,9.81-14.26,24.6-14.26,40.65c0,21.04,5.88,39.4,15.51,49.03
					c8.38,8.38,15.15,12.12,27.28,12.12c9.27,0,14.26-0.71,20.15-3.57c3.75-1.78,4.1-7.49,4.1-16.76V95.38c0-6.42-1.78-8.2-6.24-8.2
					h-7.49c-1.07,0-1.25-0.71-1.25-1.61v-4.46c0-0.71,0.18-1.25,1.25-1.25c1.61,0,10.34,0.54,26.39,0.54c16.4,0,23-0.54,24.43-0.54
					s1.61,0.54,1.61,1.43v4.46c0,1.07-0.18,1.43-1.25,1.43h-5.17c-3.21,0-5.53,1.25-5.53,6.42V117.13z"/>
				<path class="st0" d="M702.4,125.51c-12.66-7.67-26.21-26.92-26.21-52.95c0-10.88,2.85-27.81,16.58-44.39
					c15.69-19.08,35.84-22.64,51.88-22.64c14.8,0,28.53,2.32,43.5,14.08c13.55,10.7,24.43,28.7,24.43,53.31
					c0,13.01-4.1,26.56-13.37,39.04c-11.59,14.44-26.74,25.14-54.91,25.14C732,137.1,716.48,134.25,702.4,125.51z M784.59,74.35
					c0-39.04-25.67-60.44-40.65-60.44c-3.57,0-12.48-0.89-23.36,9.63c-10.52,9.98-15.87,28.7-15.87,43.32
					c0,45.64,26.21,61.86,41.01,61.86C778.7,128.72,784.59,88.96,784.59,74.35z"/>
				<path class="st0" d="M938.98,82.55c0-15.87-0.18-24.6-0.53-33.52c-0.18-6.95-1.07-24.43-1.61-27.1
					c-1.07-4.46-5.35-6.95-9.45-6.95h-5.71c-0.89,0-1.07-0.54-1.07-1.61V8.91c0-0.89,0.18-1.25,1.6-1.25
					c1.96,0,7.67,0.54,20.86,0.54c10.7,0,14.98-0.54,16.94-0.54c1.6,0,1.78,0.36,1.78,1.43v4.28c0,0.89-0.18,1.61-0.89,1.61h-4.99
					c-3.03,0-4.81,3.03-5.35,9.45c-1.25,11.94-4.1,52.24-4.1,75.77v30.49c0,2.67-0.18,5.88-2.67,5.88c-2.68,0-4.99-0.89-6.95-2.85
					c-3.03-2.85-11.77-12.3-22.46-24.96l-30.49-36.19c-3.03-3.57-27.63-34.23-31.73-40.11h-1.43v36.01c0,14.8,1.61,36.73,1.78,43.5
					c0.36,10.34,3.56,15.69,11.05,15.69h4.46c1.25,0,1.43,0.54,1.43,1.61v4.28c0,1.07-0.18,1.43-1.43,1.43
					c-1.78,0-12.48-0.54-20.86-0.54c-5.53,0-17.83,0.54-19.61,0.54c-0.71,0-0.89-0.36-0.89-1.61v-4.63c0-0.54,0.18-1.07,1.07-1.07
					h6.24c3.92,0,6.78-5.71,7.67-17.65c0.18-3.39,1.6-31.91,1.6-58.3V35.66c0-10.52-6.42-20.5-15.33-20.68l-4.46-0.18
					c-0.89,0-1.07-0.71-1.07-1.25V8.74c0-0.71,0.18-1.07,1.07-1.07c0.89,0,2.32,0.18,5.71,0.18c3.56,0.18,9.27,0.36,18.54,0.36
					c6.06,0,11.41-0.36,13.55-0.36c2.32,0,3.74,0.71,5.17,2.32l41.36,50.63l30.49,37.97h0.71V82.55z"/>
			</g>
		</g>
		<g>
			<g>
				<path class="st0" d="M36.85,238.11c0.98-1.05,7.99-17.81,8.55-18.72c0.49-0.98,8.13-17.46,8.34-18.86
					c0.14-0.77,0.91-0.84,1.61-0.84c9.33,0,11.71-0.21,12.48-0.21c0.35,0,0.42,0.21,0.42,0.49v1.61c0,0.42-0.07,0.63-0.56,0.63
					h-3.08c-2.11,0-2.31,1.26-2.31,2.87c0,2.03-0.21,12.06-0.21,16.76v4.91c0,3.51,0.21,14.86,0.21,16.27
					c0,2.66,0.63,3.79,2.38,3.79h4.14c0.42,0,0.49,0.21,0.49,0.49v1.61c0,0.42-0.07,0.63-0.63,0.63c-0.84,0-2.1-0.21-9.81-0.21
					c-6.45,0-9.19,0.21-10.1,0.21c-0.49,0-0.56-0.21-0.56-0.63v-1.61c0-0.35,0.07-0.49,0.56-0.49h4.77c1.19,0,1.82-0.42,1.96-2.52
					c0.07-0.84,0.14-13.04,0.14-18.23v-4.49c0-4.63,0-17.11-0.21-17.74h-0.14c-0.7,0.91-10.66,23-11.01,23.7
					c-0.42,0.84-8.2,18.72-8.48,19.35c-0.28,0.63-0.84,1.68-1.4,1.68c-0.42,0-0.77-0.56-1.05-1.26l-9.54-23.49
					c-1.33-3.23-7.71-18.93-8.69-19.77c-0.28,0.98-0.42,18.72-0.42,19.56s-0.07,15.63,0.14,18.09c0.35,4,0.98,5.12,3.23,5.12h3.5
					c0.42,0,0.49,0.21,0.49,0.49v1.75c0,0.28-0.07,0.49-0.63,0.49c-0.77,0-2.67-0.21-8.48-0.21c-5.96,0-8.41,0.21-9.04,0.21
					c-0.56,0-0.63-0.07-0.63-0.63v-1.68c0-0.21,0.07-0.42,0.42-0.42H7.4c2.66,0,3.29-1.82,3.72-4.21
					c0.84-4.98,1.05-22.93,1.05-24.19c0-0.98,0-11.57-0.07-13.6c-0.07-1.61,0-2.59-2.87-2.59H4.95c-0.42,0-0.49-0.21-0.49-0.49
					v-1.82c0-0.21,0.07-0.42,0.49-0.42c0.7,0,2.59,0.21,8.55,0.21c3.29,0,5.12-0.21,5.96-0.21c1.05,0,1.47,0.28,1.82,1.19
					L36.85,238.11z"/>
				<path class="st0" d="M104.16,246.24c1.12,0,2.1-0.56,2.45-1.05c0.28-0.35,0.42-0.49,0.7-0.28l0.7,0.56
					c0.21,0.21,0.35,0.56-0.07,1.26c-0.56,1.05-1.89,3.44-5.47,3.44c-2.52,0-4.35-1.82-4.98-4.7h-0.14
					c-1.47,1.75-3.79,3.22-6.94,4.28c-1.33,0.42-2.6,0.42-4.14,0.42c-1.68,0-4.21-1.4-4.21-5.82c0-3.23,1.47-6.03,7.01-8.48
					c3.16-1.4,6.8-3.08,7.92-4.07v-4.49c-0.14-1.19-0.21-3.01-0.98-3.93c-0.77-0.91-2.17-1.54-4.21-1.54c-1.4,0-3.57,0.56-4.56,1.47
					c-0.98,0.91-0.35,1.96-0.35,3.22c0,2.45-0.84,4-3.72,4c-1.12,0-1.68-0.63-1.68-2.24c0-2.24,1.96-4.91,4.84-6.59
					c2.95-1.75,5.4-2.45,8.55-2.45c3.29,0,4.63,0.98,5.61,1.89c1.47,1.47,1.54,3.09,1.54,4.98v14.86
					C102.05,244.98,102.89,246.24,104.16,246.24z M96.94,233.9c-2.52,1.89-9.39,3.29-9.39,9.11c0,2.59,1.54,3.86,3.64,3.86
					c2.03,0,5.75-2.45,5.75-4.35V233.9z"/>
				<path class="st0" d="M146.86,245.54c0,1.12,0.63,1.47,1.54,1.47h2.24c0.63,0,0.77,0.21,0.77,0.63v1.12
					c0,0.49-0.14,0.77-0.56,0.77c-0.49,0-2.66-0.21-6.66-0.21c-3.58,0-5.82,0.21-6.31,0.21c-0.42,0-0.56-0.21-0.56-0.77v-1.12
					c0-0.49,0.21-0.63,0.91-0.63h2.03c0.77,0,1.33-0.35,1.4-1.61c0.07-1.82,0.14-4.07,0.14-5.89v-9.25c0-2.8,0-4.84-2.03-6.31
					c-1.68-1.26-3.37-1.26-5.12-1.26c-1.12,0-3.58,0.49-5.68,2.73c-1.4,1.54-1.61,3.44-1.61,4.77v14.51c0,1.89,0.21,2.31,1.68,2.31
					h1.75c0.56,0,0.7,0.21,0.7,0.7v1.19c0,0.42-0.14,0.63-0.49,0.63c-0.49,0-2.38-0.21-6.1-0.21c-3.58,0-5.82,0.21-6.24,0.21
					c-0.35,0-0.49-0.21-0.49-0.63v-1.26c0-0.42,0.14-0.63,0.7-0.63h2.03c0.91,0,1.4-0.21,1.4-1.4V229.2c0-2.1-1.12-3.29-2.87-4.14
					l-0.56-0.28c-0.49-0.21-0.56-0.42-0.56-0.63v-0.35c0-0.35,0.28-0.56,0.63-0.7l6.03-3.37c0.56-0.28,0.98-0.49,1.26-0.49
					c0.35,0,0.49,0.28,0.56,0.84l0.49,4.28h0.14c2.03-2.52,6.1-5.12,9.6-5.12c2.11,0,4.28,0.42,5.96,1.54
					c2.1,1.4,3.86,4.91,3.86,6.66V245.54z"/>
				<path class="st0" d="M185.42,246.24c1.12,0,2.11-0.56,2.45-1.05c0.28-0.35,0.42-0.49,0.7-0.28l0.7,0.56
					c0.21,0.21,0.35,0.56-0.07,1.26c-0.56,1.05-1.89,3.44-5.47,3.44c-2.52,0-4.35-1.82-4.98-4.7h-0.14
					c-1.47,1.75-3.79,3.22-6.94,4.28c-1.33,0.42-2.6,0.42-4.14,0.42c-1.68,0-4.21-1.4-4.21-5.82c0-3.23,1.47-6.03,7.01-8.48
					c3.15-1.4,6.8-3.08,7.92-4.07v-4.49c-0.14-1.19-0.21-3.01-0.98-3.93c-0.77-0.91-2.17-1.54-4.21-1.54c-1.4,0-3.57,0.56-4.56,1.47
					c-0.98,0.91-0.35,1.96-0.35,3.22c0,2.45-0.84,4-3.72,4c-1.12,0-1.68-0.63-1.68-2.24c0-2.24,1.96-4.91,4.84-6.59
					c2.95-1.75,5.4-2.45,8.55-2.45c3.29,0,4.63,0.98,5.61,1.89c1.47,1.47,1.54,3.09,1.54,4.98v14.86
					C183.32,244.98,184.16,246.24,185.42,246.24z M178.2,233.9c-2.52,1.89-9.39,3.29-9.39,9.11c0,2.59,1.54,3.86,3.64,3.86
					c2.03,0,5.75-2.45,5.75-4.35V233.9z"/>
				<path class="st0" d="M201.27,266.15c-2.53-1.54-3.58-3.37-3.58-5.68c0-3.93,4-6.94,7.36-8.41v-0.28c-2.95-0.63-4.7-2.8-4.7-4.91
					c0-3.37,3.86-5.75,6.31-6.66v-0.14c-2.73-1.19-6.52-4.42-6.52-10.66c0-4.56,4.07-10.17,11.99-10.17c5.33,0,8.13,3.23,8.84,4.07
					c1.89-1.33,4.28-2.74,6.59-2.74c2.31,0,3.44,1.54,3.29,2.95c0,1.33-1.12,2.59-2.73,2.59c-1.19,0-1.89-0.56-2.45-1.05
					c-0.42-0.28-0.91-0.63-1.47-0.63c-0.49,0-1.33,0-2.24,0.42c0.56,1.4,1.05,2.95,1.05,5.33c0,2.73-0.77,5.4-2.59,7.57
					c-1.82,2.03-5.82,3.51-8.13,3.51c-1.54,0-2.52-0.07-3.57-0.35c-1.4,0.56-3.72,1.96-3.72,3.93c0,2.87,3.51,2.66,8.2,2.38
					c5.75-0.28,9.25,0.35,12.06,2.52c3.02,2.24,3.37,5.05,3.44,6.73c0,3.3-1.19,6.03-4.7,8.62c-1.82,1.33-6.03,3.29-11.99,3.29
					C208.63,268.39,204.63,268.04,201.27,266.15z M224.41,258.93c0-4.14-3.16-7.29-10.17-6.8l-6.73,0.49
					c-2.17,0.56-5.61,2.95-5.61,6.73c0,1.75,1.33,3.86,2.73,4.84c2.31,1.61,4.84,1.96,9.81,1.96
					C217.04,266.15,224.76,264.33,224.41,258.93z M217.88,229.06c0-3.08-0.63-4.91-1.89-6.31c-0.91-0.91-2.31-1.54-3.37-1.54
					c-1.61,0-3.29,0.28-4.98,1.96c-2.24,2.38-2.52,5.61-2.52,8.27c0,2.38,0.77,4.56,2.24,6.1c1.26,1.19,2.52,1.75,4.21,1.75
					C216.34,239.3,217.88,233.48,217.88,229.06z"/>
				<path class="st0" d="M245.44,230.67c-0.14,0.63-0.21,1.75-0.21,3.37c0,6.87,4.35,12.06,9.96,12.06c4.28,0,7.29-2.45,8.48-4.77
					c0.14-0.28,0.42-0.42,0.63-0.35l0.91,0.49c0.21,0.07,0.35,0.28,0,1.05c-1.26,2.8-4.91,7.64-11.15,7.64
					c-4,0-8.41-1.19-11.01-4.98c-2.45-3.58-3.09-6.17-3.09-11.08c0-2.73,0.7-7.43,4.42-11.15c3.01-3.08,6.52-3.72,10.03-3.72
					c8.06,0,10.3,7.57,10.3,10.31c0,0.98-0.84,1.12-1.96,1.12H245.44z M256.59,228.57c1.33,0,1.89-0.35,1.89-0.98
					c0-1.61-0.84-6.24-5.4-6.24c-3.08,0-6.03,2.03-7.36,7.22H256.59z"/>
				<path class="st0" d="M300.48,231.38c0-5.19-0.98-6.52-2.1-7.57c-0.91-0.84-2.95-1.26-4.49-1.26c-1.82,0-4.77,0.91-6.73,4.07
					c-0.84,1.4-0.98,2.73-0.98,4.7v13.88c0,1.12,0.42,1.82,1.4,1.82h2.53c0.63,0,0.7,0.14,0.7,0.63v1.12c0,0.49-0.07,0.77-0.56,0.77
					c-0.63,0-2.52-0.21-6.38-0.21c-3.72,0-5.96,0.21-6.52,0.21c-0.42,0-0.56-0.14-0.56-0.63v-1.26c0-0.56,0.14-0.63,0.84-0.63h2.38
					c0.63,0,0.98-0.42,1.05-1.75c0.07-1.19,0.07-2.45,0.07-3.64v-12.48c0-1.4-0.28-2.66-1.96-3.58l-1.47-0.77
					c-0.35-0.21-0.49-0.35-0.49-0.56v-0.56c0-0.21,0.28-0.49,0.42-0.56l6.17-3.16c0.56-0.28,1.05-0.42,1.33-0.42
					c0.42,0,0.63,0.49,0.63,0.98l0.28,4.07h0.21c2.1-2.87,6.24-5.33,10.3-5.33c3.65,0,6.45,2.1,7.92,5.4h0.35
					c2.11-2.73,6.1-5.4,10.31-5.4c2.45,0,4.63,0.42,6.31,2.1c1.61,1.68,3.37,3.22,3.37,8.62v15.63c0,1.05,0.63,1.4,1.47,1.4h1.89
					c0.63,0,0.77,0.14,0.77,0.63v1.19c0,0.49-0.14,0.7-0.49,0.7c-0.49,0-2.45-0.21-5.82-0.21c-3.51,0-6.03,0.21-6.52,0.21
					c-0.42,0-0.56-0.21-0.56-0.7v-1.19c0-0.49,0.14-0.63,0.91-0.63h1.75c0.77,0,1.33-0.35,1.4-1.33c0.14-1.61,0.14-4.14,0.14-5.68
					v-10.38c0-2.31-0.42-4.35-2.03-5.61c-1.26-0.98-3.09-1.47-5.19-1.47c-2.11,0-4.98,1.61-6.1,3.64c-1.05,2.03-0.98,3.93-0.98,7.08
					v12.13c0,0.91,0.35,1.61,1.4,1.61h2.38c0.63,0,0.77,0.14,0.77,0.63v1.12c0,0.56-0.14,0.77-0.49,0.77
					c-0.49,0-2.31-0.21-6.24-0.21c-3.79,0-6.17,0.21-6.59,0.21c-0.35,0-0.49-0.21-0.49-0.7v-1.12c0-0.56,0.07-0.7,0.7-0.7h2.03
					c1.12,0,1.54-0.28,1.54-1.19V231.38z"/>
				<path class="st0" d="M345.85,230.67c-0.14,0.63-0.21,1.75-0.21,3.37c0,6.87,4.35,12.06,9.96,12.06c4.28,0,7.29-2.45,8.48-4.77
					c0.14-0.28,0.42-0.42,0.63-0.35l0.91,0.49c0.21,0.07,0.35,0.28,0,1.05c-1.26,2.8-4.91,7.64-11.15,7.64
					c-4,0-8.41-1.19-11.01-4.98c-2.45-3.58-3.09-6.17-3.09-11.08c0-2.73,0.7-7.43,4.42-11.15c3.01-3.08,6.52-3.72,10.03-3.72
					c8.06,0,10.3,7.57,10.3,10.31c0,0.98-0.84,1.12-1.96,1.12H345.85z M357,228.57c1.33,0,1.89-0.35,1.89-0.98
					c0-1.61-0.84-6.24-5.4-6.24c-3.08,0-6.03,2.03-7.36,7.22H357z"/>
				<path class="st0" d="M406.07,245.54c0,1.12,0.63,1.47,1.54,1.47h2.24c0.63,0,0.77,0.21,0.77,0.63v1.12
					c0,0.49-0.14,0.77-0.56,0.77c-0.49,0-2.66-0.21-6.66-0.21c-3.58,0-5.82,0.21-6.31,0.21c-0.42,0-0.56-0.21-0.56-0.77v-1.12
					c0-0.49,0.21-0.63,0.91-0.63h2.03c0.77,0,1.33-0.35,1.4-1.61c0.07-1.82,0.14-4.07,0.14-5.89v-9.25c0-2.8,0-4.84-2.03-6.31
					c-1.68-1.26-3.37-1.26-5.12-1.26c-1.12,0-3.58,0.49-5.68,2.73c-1.4,1.54-1.61,3.44-1.61,4.77v14.51c0,1.89,0.21,2.31,1.68,2.31
					h1.75c0.56,0,0.7,0.21,0.7,0.7v1.19c0,0.42-0.14,0.63-0.49,0.63c-0.49,0-2.38-0.21-6.1-0.21c-3.58,0-5.82,0.21-6.24,0.21
					c-0.35,0-0.49-0.21-0.49-0.63v-1.26c0-0.42,0.14-0.63,0.7-0.63h2.03c0.91,0,1.4-0.21,1.4-1.4V229.2c0-2.1-1.12-3.29-2.87-4.14
					l-0.56-0.28c-0.49-0.21-0.56-0.42-0.56-0.63v-0.35c0-0.35,0.28-0.56,0.63-0.7l6.03-3.37c0.56-0.28,0.98-0.49,1.26-0.49
					c0.35,0,0.49,0.28,0.56,0.84l0.49,4.28h0.14c2.03-2.52,6.1-5.12,9.6-5.12c2.11,0,4.28,0.42,5.96,1.54
					c2.1,1.4,3.86,4.91,3.86,6.66V245.54z"/>
				<path class="st0" d="M430.83,240.56c0,5.26,2.38,6.17,3.64,6.17c1.61,0,3.65-0.28,4.63-0.91c0.35-0.21,0.63-0.14,0.84,0.14
					l0.35,0.63c0.21,0.28,0.07,0.56-0.14,0.77c-0.7,0.7-3.57,2.8-7.78,2.8c-3.44,0-6.8-3.29-6.8-5.96c0-2.87,0.21-9.04,0.21-10.03
					v-1.54c0-1.26,0.07-6.03,0.14-8.97h-4.28c-0.63,0-1.05-0.28-1.05-0.84c0-0.56,0.42-0.77,1.26-1.26
					c1.68-0.98,7.08-6.38,7.99-8.76c0.21-0.56,0.56-0.7,0.98-0.7c0.56,0,0.7,0.49,0.7,1.05l-0.35,6.87h9.75
					c0.42,0,0.63,0.35,0.49,0.63l-0.7,2.45c-0.07,0.35-0.21,0.56-0.63,0.56h-9.04c-0.14,3.22-0.21,6.66-0.21,9.88V240.56z"/>
				<path class="st0" d="M484.04,243.93c-5.05-4.77-7.5-12.9-7.5-19.63c0-6.52,2.1-13.25,7.15-18.58c3.58-3.79,9.89-7.08,17.53-7.08
					c6.38,0,11.64,2.38,14.16,3.86c0.91,0.56,1.26,0.49,1.4,0l0.56-2.03c0.14-0.42,0.28-0.42,0.91-0.42s0.77,0.14,0.77,1.12
					c0,1.33,1.4,11.64,1.75,13.6c0.07,0.35,0,0.63-0.28,0.7l-1.05,0.28c-0.35,0.07-0.49,0-0.7-0.56c-0.98-2.31-2.53-5.68-5.47-8.69
					c-2.95-3.01-6.66-5.4-12.2-5.4c-12.55,0-17.6,11.15-17.53,21.38c0,4.07,1.26,11.99,6.73,18.02c4.77,5.33,8.77,5.89,13.46,5.89
					c7.92,0,14.09-4.35,17.32-8.9c0.21-0.35,0.35-0.42,0.56-0.21l0.91,0.7c0.21,0.14,0.35,0.28,0.14,0.63
					c-4.21,6.1-11.01,11.78-20.89,11.78C493.51,250.38,488.25,247.78,484.04,243.93z"/>
				<path class="st0" d="M538.8,245.33c-3.23-3.86-3.86-6.45-3.86-11.43c0-3.58,1.89-8.06,6.03-11.29c3.64-2.8,7.08-3.37,9.39-3.37
					c3.86,0,7.71,1.96,9.82,4.07c3.15,3.22,4.77,6.87,4.77,11.43c0,7.64-6.87,15.42-15.49,15.42
					C546.09,250.17,541.75,248.83,538.8,245.33z M559.06,234.04c0-7.78-5.68-12.69-9.26-12.69c-1.89,0-3.72,0.42-5.4,2.24
					c-2.73,2.8-3.72,5.68-3.72,11.01c0,3.93,0.42,6.59,2.67,9.82c1.61,2.31,3.64,3.64,6.94,3.64
					C555.63,248.06,559.06,241.54,559.06,234.04z"/>
				<path class="st0" d="M605.48,245.54c0,1.12,0.63,1.47,1.54,1.47h2.24c0.63,0,0.77,0.21,0.77,0.63v1.12
					c0,0.49-0.14,0.77-0.56,0.77c-0.49,0-2.66-0.21-6.66-0.21c-3.58,0-5.82,0.21-6.31,0.21c-0.42,0-0.56-0.21-0.56-0.77v-1.12
					c0-0.49,0.21-0.63,0.91-0.63h2.03c0.77,0,1.33-0.35,1.4-1.61c0.07-1.82,0.14-4.07,0.14-5.89v-9.25c0-2.8,0-4.84-2.03-6.31
					c-1.68-1.26-3.37-1.26-5.12-1.26c-1.12,0-3.58,0.49-5.68,2.73c-1.4,1.54-1.61,3.44-1.61,4.77v14.51c0,1.89,0.21,2.31,1.68,2.31
					h1.75c0.56,0,0.7,0.21,0.7,0.7v1.19c0,0.42-0.14,0.63-0.49,0.63c-0.49,0-2.38-0.21-6.1-0.21c-3.58,0-5.82,0.21-6.24,0.21
					c-0.35,0-0.49-0.21-0.49-0.63v-1.26c0-0.42,0.14-0.63,0.7-0.63h2.03c0.91,0,1.4-0.21,1.4-1.4V229.2c0-2.1-1.12-3.29-2.87-4.14
					l-0.56-0.28c-0.49-0.21-0.56-0.42-0.56-0.63v-0.35c0-0.35,0.28-0.56,0.63-0.7l6.03-3.37c0.56-0.28,0.98-0.49,1.26-0.49
					c0.35,0,0.49,0.28,0.56,0.84l0.49,4.28h0.14c2.03-2.52,6.1-5.12,9.6-5.12c2.11,0,4.28,0.42,5.96,1.54
					c2.1,1.4,3.86,4.91,3.86,6.66V245.54z"/>
				<path class="st0" d="M622.94,248.13c-0.35-0.21-0.35-0.63-0.42-0.98l-1.19-6.66c-0.07-0.35,0.14-0.49,0.42-0.56l0.91-0.21
					c0.28-0.07,0.49,0.07,0.63,0.42l1.75,3.43c1.4,2.59,2.38,4.35,6.1,4.35c2.45,0,5.54-1.47,5.54-4.77c0-3.16-1.54-4.98-6.8-6.45
					c-4.14-1.19-8.27-3.37-8.27-8.9c0-4.84,4.56-8.55,9.82-8.55c3.37,0,5.19,0.84,6.45,1.47c1.05,0.49,1.19,0.84,1.26,1.26
					l1.05,4.91c0,0.28-0.14,0.49-0.49,0.63l-0.84,0.28c-0.28,0.07-0.42,0-0.63-0.35l-2.38-3.22c-0.84-1.33-2.17-2.74-4.91-2.74
					c-2.67,0-5.4,1.61-5.4,4.63c0,4.07,3.29,4.84,6.73,5.82c5.12,1.47,8.34,3.58,8.41,8.97c-0.07,5.68-4.7,9.25-10.66,9.25
					C626.59,250.17,623.78,248.76,622.94,248.13z"/>
				<path class="st0" d="M679.59,235.09c0,3.37,0,6.8,0.14,8.27c0.21,2.17,0.98,2.45,1.82,2.45c0.42,0,1.47,0,2.31-0.21
					c0.56-0.14,0.77,0,0.84,0.28l0.21,0.91c0.07,0.42-0.07,0.56-0.35,0.63l-7.36,2.45c-0.42,0.14-0.84,0.28-1.4,0.28
					c-0.28,0-0.56-0.14-0.63-0.84l-0.56-4.07h-0.14c-1.96,2.74-6.03,4.91-9.54,4.91c-1.96,0-4.28-0.21-6.59-3.23
					c-2.87-3.72-2.73-6.03-2.73-13.74V225c-0.07-1.96-1.05-2.45-2.67-2.66c-1.19-0.07-1.54-0.14-1.54-0.49v-1.26
					c0-0.42,0.14-0.56,0.77-0.56h6.24c0.42,0,0.7-0.07,0.98-0.14c0.28,0,0.56-0.07,0.77-0.07c0.49,0,0.84,0.35,0.77,0.84
					c-0.07,0.63-0.28,3.93-0.28,8.06v5.05c0,2.8-0.7,7.29,1.54,10.52c1.75,2.52,3.72,2.66,5.61,2.66c1.89,0,4.7-1.82,6.03-3.51
					c0.28-0.35,0.7-1.26,0.7-1.89v-16.76c-0.14-1.96-1.26-2.31-3.02-2.45c-1.19,0-1.54-0.14-1.54-0.49v-1.19
					c0-0.56,0.14-0.63,0.84-0.63h6.52c0.49,0,0.84-0.07,1.19-0.14c0.35,0,0.63-0.07,0.84-0.07c0.42,0,0.7,0.35,0.63,0.7
					c-0.07,0.63-0.42,2.45-0.42,9.33V235.09z"/>
				<path class="st0" d="M704.62,228.43c0,3.65,0,14.23,0.07,16.41c0.07,1.19,0.35,2.17,1.82,2.17h3.15c0.63,0,0.77,0.21,0.77,0.63
					v1.19c0,0.42-0.14,0.7-0.42,0.7c-0.49,0-3.57-0.21-7.92-0.21c-4.49,0-7.29,0.21-7.92,0.21c-0.35,0-0.49-0.28-0.49-0.7v-1.19
					c0-0.49,0.14-0.63,0.91-0.63h3.37c0.77,0,1.47-0.49,1.54-1.75c0.07-2.17,0.07-14.23,0.07-18.3v-4.42
					c0-4.98-0.07-11.36-0.21-13.18c-0.14-2.38-1.26-3.5-3.5-4.21l-1.4-0.49c-0.35-0.14-0.42-0.21-0.42-0.35v-0.56
					c0-0.21,0.21-0.35,0.63-0.49c2.45-1.12,5.61-2.38,8.2-4.07c0.63-0.42,1.05-0.56,1.47-0.56c0.49,0,0.63,0.35,0.56,1.26
					c-0.07,3.86-0.28,18.44-0.28,22.3V228.43z"/>
				<path class="st0" d="M729.66,240.56c0,5.26,2.38,6.17,3.64,6.17c1.61,0,3.65-0.28,4.63-0.91c0.35-0.21,0.63-0.14,0.84,0.14
					l0.35,0.63c0.21,0.28,0.07,0.56-0.14,0.77c-0.7,0.7-3.57,2.8-7.78,2.8c-3.44,0-6.8-3.29-6.8-5.96c0-2.87,0.21-9.04,0.21-10.03
					v-1.54c0-1.26,0.07-6.03,0.14-8.97h-4.28c-0.63,0-1.05-0.28-1.05-0.84c0-0.56,0.42-0.77,1.26-1.26
					c1.68-0.98,7.08-6.38,7.99-8.76c0.21-0.56,0.56-0.7,0.98-0.7c0.56,0,0.7,0.49,0.7,1.05l-0.35,6.87h9.75
					c0.42,0,0.63,0.35,0.49,0.63l-0.7,2.45c-0.07,0.35-0.21,0.56-0.63,0.56h-9.04c-0.14,3.22-0.21,6.66-0.21,9.88V240.56z"/>
				<path class="st0" d="M772.84,246.24c1.12,0,2.1-0.56,2.45-1.05c0.28-0.35,0.42-0.49,0.7-0.28l0.7,0.56
					c0.21,0.21,0.35,0.56-0.07,1.26c-0.56,1.05-1.89,3.44-5.47,3.44c-2.52,0-4.35-1.82-4.98-4.7h-0.14
					c-1.47,1.75-3.79,3.22-6.94,4.28c-1.33,0.42-2.6,0.42-4.14,0.42c-1.68,0-4.21-1.4-4.21-5.82c0-3.23,1.47-6.03,7.01-8.48
					c3.16-1.4,6.8-3.08,7.92-4.07v-4.49c-0.14-1.19-0.21-3.01-0.98-3.93c-0.77-0.91-2.17-1.54-4.21-1.54c-1.4,0-3.57,0.56-4.56,1.47
					c-0.98,0.91-0.35,1.96-0.35,3.22c0,2.45-0.84,4-3.72,4c-1.12,0-1.68-0.63-1.68-2.24c0-2.24,1.96-4.91,4.84-6.59
					c2.95-1.75,5.4-2.45,8.55-2.45c3.29,0,4.63,0.98,5.61,1.89c1.47,1.47,1.54,3.09,1.54,4.98v14.86
					C770.74,244.98,771.58,246.24,772.84,246.24z M765.62,233.9c-2.52,1.89-9.39,3.29-9.39,9.11c0,2.59,1.54,3.86,3.64,3.86
					c2.03,0,5.75-2.45,5.75-4.35V233.9z"/>
				<path class="st0" d="M815.55,245.54c0,1.12,0.63,1.47,1.54,1.47h2.24c0.63,0,0.77,0.21,0.77,0.63v1.12
					c0,0.49-0.14,0.77-0.56,0.77c-0.49,0-2.66-0.21-6.66-0.21c-3.58,0-5.82,0.21-6.31,0.21c-0.42,0-0.56-0.21-0.56-0.77v-1.12
					c0-0.49,0.21-0.63,0.91-0.63h2.03c0.77,0,1.33-0.35,1.4-1.61c0.07-1.82,0.14-4.07,0.14-5.89v-9.25c0-2.8,0-4.84-2.03-6.31
					c-1.68-1.26-3.37-1.26-5.12-1.26c-1.12,0-3.58,0.49-5.68,2.73c-1.4,1.54-1.61,3.44-1.61,4.77v14.51c0,1.89,0.21,2.31,1.68,2.31
					h1.75c0.56,0,0.7,0.21,0.7,0.7v1.19c0,0.42-0.14,0.63-0.49,0.63c-0.49,0-2.38-0.21-6.1-0.21c-3.58,0-5.82,0.21-6.24,0.21
					c-0.35,0-0.49-0.21-0.49-0.63v-1.26c0-0.42,0.14-0.63,0.7-0.63h2.03c0.91,0,1.4-0.21,1.4-1.4V229.2c0-2.1-1.12-3.29-2.87-4.14
					l-0.56-0.28c-0.49-0.21-0.56-0.42-0.56-0.63v-0.35c0-0.35,0.28-0.56,0.63-0.7l6.03-3.37c0.56-0.28,0.98-0.49,1.26-0.49
					c0.35,0,0.49,0.28,0.56,0.84l0.49,4.28h0.14c2.03-2.52,6.1-5.12,9.6-5.12c2.11,0,4.28,0.42,5.96,1.54
					c2.1,1.4,3.86,4.91,3.86,6.66V245.54z"/>
				<path class="st0" d="M836.16,232.36c0,3.79,1.68,8.06,3.58,10.66c2.31,3.02,5.26,3.58,7.64,3.58c3.51,0,5.33-0.77,7.71-3.02
					c0.14-0.14,0.35-0.21,0.56,0l0.7,0.7c0.28,0.28,0.35,0.49,0,0.91c-2.03,2.31-6.52,4.98-11.29,4.98c-3.72,0-7.64-0.84-10.87-4.91
					c-2.6-3.43-3.16-6.38-3.16-9.54c0-8.2,5.75-16.48,15.01-16.48c7.29,0,9.54,4.21,9.54,5.68c-0.07,1.61-1.12,2.45-2.6,2.45
					c-1.61,0-2.8-0.91-3.86-2.8c-1.54-2.87-3.01-3.08-4.7-3.08C840.44,221.49,836.16,225.14,836.16,232.36z"/>
				<path class="st0" d="M871.43,228.92c0-2.38-0.42-3.65-3.93-4.21c-0.49-0.07-0.63-0.21-0.63-0.49v-0.63
					c0-0.21,0.14-0.35,0.49-0.49c2.24-0.84,4.91-1.96,7.57-3.44c0.56-0.28,0.91-0.42,1.33-0.42c0.35,0,0.42,0.35,0.35,0.84
					c-0.14,1.19-0.14,5.61-0.14,11.43v7.64c0,2.73,0,5.26,0.07,6.03c0.14,1.33,0.35,1.82,1.12,1.82h3.22c0.56,0,0.7,0.21,0.7,0.63
					v1.19c0,0.49-0.14,0.7-0.63,0.7c-0.56,0-3.79-0.21-6.73-0.21c-4.06,0-6.8,0.21-7.57,0.21c-0.35,0-0.56-0.14-0.56-0.56v-1.4
					c0-0.42,0.21-0.56,0.7-0.56h3.43c0.77,0,1.05-0.28,1.12-1.4c0.07-2.1,0.07-4.28,0.07-6.38V228.92z M868.13,207.4
					c0-1.82,1.54-3.93,4.42-3.93c2.6,0,3.79,2.1,3.79,3.72c0,1.89-1.26,4.14-4.21,4.14C870.52,211.32,868.13,209.71,868.13,207.4z"
					/>
				<path class="st0" d="M898.07,230.67c-0.14,0.63-0.21,1.75-0.21,3.37c0,6.87,4.35,12.06,9.96,12.06c4.28,0,7.29-2.45,8.48-4.77
					c0.14-0.28,0.42-0.42,0.63-0.35l0.91,0.49c0.21,0.07,0.35,0.28,0,1.05c-1.26,2.8-4.91,7.64-11.15,7.64
					c-4,0-8.41-1.19-11.01-4.98c-2.45-3.58-3.09-6.17-3.09-11.08c0-2.73,0.7-7.43,4.42-11.15c3.01-3.08,6.52-3.72,10.03-3.72
					c8.06,0,10.3,7.57,10.3,10.31c0,0.98-0.84,1.12-1.96,1.12H898.07z M909.22,228.57c1.33,0,1.89-0.35,1.89-0.98
					c0-1.61-0.84-6.24-5.4-6.24c-3.08,0-6.03,2.03-7.36,7.22H909.22z"/>
				<path class="st0" d="M931.45,248.13c-0.35-0.21-0.35-0.63-0.42-0.98l-1.19-6.66c-0.07-0.35,0.14-0.49,0.42-0.56l0.91-0.21
					c0.28-0.07,0.49,0.07,0.63,0.42l1.75,3.43c1.4,2.59,2.38,4.35,6.1,4.35c2.45,0,5.54-1.47,5.54-4.77c0-3.16-1.54-4.98-6.8-6.45
					c-4.14-1.19-8.27-3.37-8.27-8.9c0-4.84,4.56-8.55,9.82-8.55c3.37,0,5.19,0.84,6.45,1.47c1.05,0.49,1.19,0.84,1.26,1.26
					l1.05,4.91c0,0.28-0.14,0.49-0.49,0.63l-0.84,0.28c-0.28,0.07-0.42,0-0.63-0.35l-2.38-3.22c-0.84-1.33-2.17-2.74-4.91-2.74
					c-2.67,0-5.4,1.61-5.4,4.63c0,4.07,3.29,4.84,6.73,5.82c5.12,1.47,8.34,3.58,8.41,8.97c-0.07,5.68-4.7,9.25-10.66,9.25
					C935.09,250.17,932.29,248.76,931.45,248.13z"/>
			</g>
		</g>
	</g>
</g>
</svg>
