<?xml version="1.0" encoding="utf-8"?>
<!-- Generator: Adobe Illustrator 23.0.1, SVG Export Plug-In . SVG Version: 6.00 Build 0)  -->
<svg version="1.1" id="Layer_1" xmlns="http://www.w3.org/2000/svg" xmlns:xlink="http://www.w3.org/1999/xlink" x="0px" y="0px"
	 viewBox="0 0 639.22 178.8" style="enable-background:new 0 0 639.22 178.8;" xml:space="preserve">
<style type="text/css">
	.st0{fill:#FFFFFF;}
	.st1{fill:#6C7C9A;}
</style>
<g>
	<g>
		<g>
			<g>
				<path class="st1" d="M88.72,118.4c-6.44-3.9-13.34-13.7-13.34-26.96c0-5.54,1.45-14.16,8.44-22.6
					c7.99-9.71,18.24-11.53,26.41-11.53c7.53,0,14.52,1.18,22.15,7.17c6.9,5.45,12.43,14.61,12.43,27.14
					c0,6.63-2.09,13.52-6.81,19.88c-5.9,7.35-13.61,12.8-27.96,12.8C103.79,124.3,95.89,122.85,88.72,118.4z M130.56,92.35
					c0-19.88-13.07-30.77-20.69-30.77c-1.82,0-6.35-0.45-11.89,4.9c-5.36,5.08-8.08,14.61-8.08,22.05
					c0,23.24,13.34,31.49,20.88,31.49C127.57,120.03,130.56,99.79,130.56,92.35z"/>
				<path class="st1" d="M164.87,115.95c-6.72-5.99-9.89-16.43-9.89-24.23c0-9.35,3-17.79,9.35-24.6c5.17-5.54,12.71-9.8,23.96-9.8
					c8.26,0,15.07,2.09,18.24,3.81c1.27,0.63,1.72,0.54,1.91-0.09l0.73-2.27c0.18-0.54,0.36-0.54,1.72-0.54
					c1.36,0,1.54,0.18,1.54,1.45c0,1.72,1.63,17.15,2.09,19.88c0.09,0.64,0,1.09-0.45,1.18l-2,0.54c-0.45,0.18-0.82-0.18-1.09-1
					c-1-3.63-3.45-8.26-7.26-12.16c-3.9-3.81-8.71-6.81-15.61-6.81c-13.25,0-18.88,12.07-18.79,25.51c0,5.72,1.63,16.88,8.08,23.69
					c5.9,6.08,11.07,6.81,14.16,6.81c10.35,0,18.06-4.72,21.42-9.71c0.45-0.73,0.91-1.09,1.36-0.73l1.54,1.36
					c0.27,0.18,0.36,0.54,0,1.09c-5.26,7.62-14.07,14.98-26.86,14.98C176.94,124.3,170.58,121.03,164.87,115.95z"/>
				<path class="st1" d="M244.74,62.85h-3.18c-2.9,0-8.35,0.09-12.16,1.45c-2,1.45-5.99,6.99-8.26,10.26
					c-0.27,0.45-0.54,0.73-0.91,0.64l-2-0.73c-0.36-0.09-0.45-0.54-0.36-0.82c1-3.81,3.99-15.79,4.36-17.61
					c0.27-1.18,0.73-1.54,1.36-1.54c0.64,0,0.91,0.36,1.73,1.36c1,1.27,2.72,2.09,5.99,2.27c4.81,0.27,8.62,0.54,18.06,0.54h5.27
					c9.89,0,13.8-0.36,17.61-0.54c2-0.09,5.54-1.18,6.62-2.27c0.91-0.91,1.45-1.36,2.09-1.36c0.63,0,0.91,0.36,1.09,1.45l2.72,18.06
					c0.09,0.36-0.09,0.73-0.36,0.82l-1.91,0.73c-0.36,0.09-0.54-0.18-0.91-0.82c-2-3.27-5.54-7.99-7.81-10.17
					c-2.27-1.36-10.35-1.72-12.43-1.72h-3v24.96c0,1.27,0,26.68,0.09,28.05c0.18,2.27,0.91,3.63,3.09,3.63h4.08
					c0.82,0,0.91,0.27,0.91,0.91v2.09c0,0.45-0.09,0.73-0.91,0.73c-0.91,0-3.81-0.27-13.89-0.27c-9.62,0-13.43,0.27-14.7,0.27
					c-0.73,0-0.82-0.36-0.82-1.09v-1.73c0-0.64,0.09-0.91,0.64-0.91h4.63c1.82,0,2.9-1.09,3.09-2.72
					c0.18-1.91,0.18-29.77,0.18-31.49V62.85z"/>
				<path class="st1" d="M293.29,98.07c-0.73,1.91-5.17,14.34-5.17,17.24c0,2,0.82,4.17,3.54,4.17h3.18c0.91,0,1,0.36,1,0.73v2
					c0,0.73-0.09,1-0.82,1c-1.18,0-4.9-0.27-12.34-0.27c-6.63,0-8.62,0.27-9.89,0.27c-0.54,0-0.64-0.54-0.64-1.18v-1.73
					c0-0.54,0.09-0.82,0.64-0.82h2.36c2.18,0,4.36-1.27,6.17-3.99c1.27-1.91,7.71-17.7,10.71-25.69c0.73-1.82,8.08-21.33,8.89-23.78
					c0.27-0.91,0.73-2.09,0.09-3.09c-0.27-0.36-0.64-0.82-0.64-1.18c0-0.27,0.18-0.63,0.91-0.82c2.9-0.64,8.8-3,10.17-4.54
					c0.45-0.45,0.73-0.82,1.18-0.82c0.54,0,0.73,0.54,1,1.54c1.72,5.72,8.8,26.05,10.53,31.86c2.09,7.08,7.99,23.96,9.26,26.41
					c1.54,3,3.9,4.08,5.26,4.08h3.09c0.54,0,0.64,0.36,0.64,0.82v1.73c0,0.54-0.09,1.18-0.82,1.18c-1.72,0-3.63-0.27-15.25-0.27
					c-7.53,0-10.71,0.27-12.53,0.27c-0.91,0-1-0.54-1-1.18v-1.73c0-0.45,0.09-0.82,0.54-0.82h2.54c2.45,0,3.27-0.91,2.72-3.27
					c-0.82-3.27-4.36-14.89-5.45-18.15H293.29z M312.35,94.44l-6.81-24.05c-0.36-1.36-0.54-2-1-2c-0.54,0-0.82,0.36-1.09,1.18
					c-0.45,1.18-8.26,22.6-8.99,24.87H312.35z"/>
				<path class="st1" d="M404.56,114.13c0,1.27,0.36,2.18,0.36,2.9c0,0.73-0.54,1.09-1.45,1.45c-7.35,3.72-15.07,5.81-26.59,5.81
					c-9.44,0-20.06-3-26.32-10.35c-5.54-6.26-8.35-13.98-8.35-24.96c0-8.26,3.9-17.06,10.53-22.78c6.62-5.81,14.79-8.89,25.69-8.89
					c9.17,0,15.97,2.54,18.97,4.45c1.09,0.64,1.73,0.45,2.27-0.27l0.91-1.45c0.45-0.64,0.64-0.91,1.18-0.91c1,0,1.27,0.64,1.27,1.63
					l1.36,18.7c0.09,1.09,0,1.54-0.36,1.63l-2.54,0.54c-0.54,0.09-0.82-0.09-1.09-0.91c-1.45-4.45-4.36-10.26-8.26-13.8
					c-3.54-3.36-8.17-5.63-14.34-5.63c-4.9,0-9.44,1.54-13.7,6.81c-4.18,4.99-7.26,12.53-7.26,20.69c0,10.71,3,20.06,7.9,24.96
					c4.27,4.27,7.71,6.17,13.89,6.17c4.72,0,7.26-0.36,10.26-1.81c1.91-0.91,2.09-3.81,2.09-8.53v-6.54c0-3.27-0.91-4.17-3.18-4.17
					h-3.81c-0.54,0-0.64-0.36-0.64-0.82V95.8c0-0.36,0.09-0.64,0.64-0.64c0.82,0,5.26,0.27,13.43,0.27c8.35,0,11.71-0.27,12.43-0.27
					c0.73,0,0.82,0.27,0.82,0.73v2.27c0,0.54-0.09,0.73-0.64,0.73h-2.63c-1.63,0-2.81,0.63-2.81,3.27V114.13z"/>
				<path class="st1" d="M431.79,118.4c-6.44-3.9-13.34-13.7-13.34-26.96c0-5.54,1.45-14.16,8.44-22.6
					c7.99-9.71,18.24-11.53,26.41-11.53c7.53,0,14.52,1.18,22.15,7.17c6.9,5.45,12.43,14.61,12.43,27.14
					c0,6.63-2.09,13.52-6.81,19.88c-5.9,7.35-13.61,12.8-27.96,12.8C446.86,124.3,438.96,122.85,431.79,118.4z M473.63,92.35
					c0-19.88-13.07-30.77-20.69-30.77c-1.82,0-6.35-0.45-11.89,4.9c-5.36,5.08-8.08,14.61-8.08,22.05
					c0,23.24,13.34,31.49,20.88,31.49C470.63,120.03,473.63,99.79,473.63,92.35z"/>
				<path class="st1" d="M552.23,96.53c0-8.08-0.09-12.52-0.27-17.06c-0.09-3.54-0.54-12.43-0.82-13.8
					c-0.54-2.27-2.72-3.54-4.81-3.54h-2.9c-0.45,0-0.54-0.27-0.54-0.82v-2.27c0-0.45,0.09-0.64,0.82-0.64c1,0,3.9,0.27,10.62,0.27
					c5.45,0,7.62-0.27,8.62-0.27c0.82,0,0.91,0.18,0.91,0.73v2.18c0,0.45-0.09,0.82-0.45,0.82h-2.54c-1.54,0-2.45,1.54-2.72,4.81
					c-0.63,6.08-2.09,26.59-2.09,38.57v15.52c0,1.36-0.09,3-1.36,3c-1.36,0-2.54-0.45-3.54-1.45c-1.54-1.45-5.99-6.26-11.44-12.71
					l-15.52-18.43c-1.54-1.81-14.07-17.43-16.16-20.42h-0.73v18.33c0,7.53,0.82,18.7,0.91,22.15c0.18,5.26,1.81,7.99,5.63,7.99h2.27
					c0.64,0,0.73,0.27,0.73,0.82v2.18c0,0.54-0.09,0.73-0.73,0.73c-0.91,0-6.35-0.27-10.62-0.27c-2.81,0-9.08,0.27-9.98,0.27
					c-0.36,0-0.45-0.18-0.45-0.82v-2.36c0-0.27,0.09-0.54,0.54-0.54h3.18c2,0,3.45-2.9,3.9-8.98c0.09-1.73,0.82-16.25,0.82-29.68
					v-8.17c0-5.36-3.27-10.44-7.81-10.53l-2.27-0.09c-0.45,0-0.54-0.36-0.54-0.64v-2.45c0-0.36,0.09-0.54,0.54-0.54
					c0.45,0,1.18,0.09,2.9,0.09c1.81,0.09,4.72,0.18,9.44,0.18c3.09,0,5.81-0.18,6.9-0.18c1.18,0,1.91,0.36,2.63,1.18l21.06,25.78
					l15.52,19.33h0.36V96.53z"/>
			</g>
		</g>
	</g>
</g>
</svg>
